# xmcd
#
# Track frame offsets: 
#        150
#        14215
#        27165
#        40097
#        49925
#        64662
#        76962
#        87980
#        99422
#        111830
#        120050
#        132455
#        141562
#        154130
#        165652
#
# Disc length: 2379 seconds
#
# Revision: 0
# Processed by: cddbd v1.5.1PL0 Copyright (c) Steve Scherf et al.
# Submitted via: ExactAudioCopy v0.95a5
#
DISCID=c609490f
DTITLE=Kitty Wells - T'wasn't God That Made Honkey Tonk Angels
DYEAR=1997
DGENRE=Classic Country
TTITLE0=I Don't Claim To Be An Angel
TTITLE1=Release Me
TTITLE2=Making Believe
TTITLE3=Whose Shoulder Will You Cry On
TTITLE4=One By One
TTITLE5=Lonely Side Of Town
TTITLE6=Searching
TTITLE7=Mommy For A Day
TTITLE8=From Left To Right
TTITLE9=After Dark
TTITLE10=Password
TTITLE11=I'll Repossess My Heart
TTITLE12=As Long As I Live
TTITLE13=Honky Tonk Angels
TTITLE14=This White Circle
EXTD=
EXTT0=
EXTT1=
EXTT2=
EXTT3=
EXTT4=
EXTT5=
EXTT6=
EXTT7=
EXTT8=
EXTT9=
EXTT10=
EXTT11=
EXTT12=
EXTT13=
EXTT14=
PLAYORDER=
